<svg width="28" height="33" viewBox="0 0 28 33" fill="none" xmlns="http://www.w3.org/2000/svg">
<path d="M25.5669 6.43518C23.0849 2.50976 18.5935 -0.0314742 13.8876 0.000752991C6.3621 -0.0802079 -0.0826334 6.37859 0.000801192 13.9999C0.00781906 18.2193 1.83714 21.9765 4.79868 24.5736V31.9984C4.90551 32 5.01156 32.0023 5.11838 32.0023C5.72972 32.0023 6.33559 31.9717 6.93055 31.9111C7.30406 31.8718 7.67367 31.8231 8.03937 31.761C8.04639 31.761 8.05341 31.7594 8.06043 31.7571C8.39807 31.7013 8.7318 31.6353 9.06242 31.5582C9.44061 31.4741 9.81411 31.3759 10.1837 31.2627C12.5971 30.5442 14.7984 29.3212 16.6698 27.7161C22.9617 26.4349 27.783 20.7637 27.7736 14.0007C27.7736 11.215 26.9619 8.61798 25.5669 6.43675V6.43518ZM18.889 21.644V21.6456C18.7627 21.8783 18.6317 22.1039 18.4929 22.3279C18.0164 23.1013 17.4768 23.8323 16.8795 24.5099C16.5115 24.9289 16.1208 25.3282 15.7107 25.7062C13.472 26.0631 11.1062 25.7416 9.0632 24.8031V27.1242C10.2017 27.5518 11.3783 27.8238 12.6025 27.9354C10.8574 28.8959 8.91193 29.5161 6.93055 29.7449V24.6632C8.73804 23.1178 10.1455 21.1056 10.9674 18.8615H8.66474C8.38013 19.4935 8.04483 20.0971 7.65885 20.6654C7.4335 21.0003 7.18943 21.3226 6.93055 21.6307V13.9983C6.93055 12.5976 7.34071 11.2897 8.04639 10.194C8.33568 10.4392 8.61874 10.69 8.89789 10.9478C8.69671 11.3007 8.58365 11.7086 8.58365 12.1441C8.58365 13.004 9.02967 13.7594 9.69949 14.1878C10.0707 14.4244 10.5097 14.5619 10.9822 14.5619C11.2793 14.5619 11.5647 14.5085 11.8259 14.4079C11.8844 14.3866 11.9413 14.3615 11.9967 14.3348C12.2119 14.6138 12.4216 14.8991 12.6259 15.1892C13.0829 15.8306 13.5125 16.4948 13.9141 17.177C14.3157 16.4948 14.7453 15.8298 15.2023 15.1892C15.4066 14.9007 15.6163 14.6162 15.8315 14.3363C16.1388 14.4818 16.4834 14.5619 16.846 14.5619C18.17 14.5619 19.2446 13.4804 19.2446 12.1441C19.2446 11.7086 19.1307 11.3007 18.9303 10.9478C19.197 10.701 19.4684 10.4589 19.746 10.2223C21.8794 13.6281 20.5842 18.4056 18.8898 21.6433L18.889 21.644ZM9.46478 8.59047C11.8766 6.45955 15.9618 6.48785 18.3369 8.61405C17.9119 8.97798 17.4963 9.35213 17.0932 9.74043H17.0916C16.1637 10.6326 15.2935 11.5837 14.4888 12.5882C14.2931 12.8319 14.1012 13.0787 13.9149 13.3294C13.1297 12.2793 12.2735 11.285 11.3541 10.3504C11.1514 10.1444 10.9455 9.94165 10.7374 9.73965H10.7358C10.3233 9.34349 9.90067 8.96069 9.46556 8.58968L9.46478 8.59047ZM19.7974 24.2379C22.5913 20.1192 24.4721 13.4843 21.4341 8.89859C20.7604 7.89326 19.8949 7.02234 18.8898 6.35501V6.35343C14.9691 3.58111 8.9361 4.7916 6.35899 8.87344C5.37493 10.337 4.79868 12.1032 4.79868 13.9999V21.5049C3.13389 19.4612 2.13345 16.8461 2.13345 13.9999C2.13345 11.5672 2.86565 9.3034 4.11795 7.41929C4.51953 6.81562 4.97413 6.25125 5.47707 5.73169C5.61899 5.58313 5.76637 5.43771 5.91764 5.30016C6.44554 4.80574 7.01789 4.36321 7.62844 3.97491C9.44061 2.81945 11.5873 2.15133 13.8868 2.15133C14.5067 2.15133 15.1165 2.20006 15.7099 2.29281C17.1798 2.52548 18.5599 3.03246 19.7966 3.7619C20.7246 4.30819 21.5722 4.98024 22.316 5.75212C22.8174 6.27169 23.2705 6.83763 23.6697 7.44287C24.915 9.32148 25.6402 11.579 25.6402 14.0007C25.6402 18.3639 23.2892 22.1825 19.7959 24.2395L19.7974 24.2379Z" fill="#4829AA"/>
</svg>
