<svg width="112" height="128" viewBox="0 0 112 128" fill="none" xmlns="http://www.w3.org/2000/svg">
<path d="M102.894 25.7376C92.905 10.0358 74.8292 -0.129071 55.8905 -0.000161866C25.6042 -0.324006 -0.332649 25.5112 0.00313284 55.9965C0.0313762 72.8741 7.39348 87.903 19.3122 98.2911V127.99C19.7421 127.997 20.1689 128.006 20.5988 128.006C23.0591 128.006 25.4975 127.884 27.8919 127.641C29.3951 127.484 30.8825 127.289 32.3543 127.041C32.3826 127.041 32.4108 127.035 32.4391 127.025C33.7979 126.802 35.141 126.538 36.4716 126.23C37.9936 125.893 39.4968 125.5 40.9842 125.048C50.6968 122.174 59.5558 117.282 67.0874 110.861C92.4091 105.736 111.812 83.0516 111.775 55.9996C111.775 44.8569 108.508 34.4688 102.894 25.7438V25.7376ZM76.0186 86.573V86.5793C75.5102 87.5099 74.983 88.4123 74.4244 89.3084C72.507 92.4022 70.3354 95.3262 67.9315 98.0364C66.4503 99.7122 64.8781 101.309 63.2275 102.822C54.2178 104.249 44.6967 102.963 36.4747 99.2092V108.494C41.0564 110.204 45.7919 111.292 50.7188 111.738C43.6956 115.581 35.8659 118.061 27.8919 118.976V98.6495C35.1661 92.4682 40.8305 84.4193 44.1381 75.4428H34.8711C33.7257 77.9707 32.3763 80.3854 30.8229 82.6586C29.916 83.998 28.9337 85.2871 27.8919 86.5195V55.9902C27.8919 50.3874 29.5425 45.1556 32.3826 40.7727C33.5468 41.7537 34.686 42.7566 35.8094 43.7879C34.9998 45.1996 34.5448 46.8314 34.5448 48.5732C34.5448 52.0129 36.3398 55.0344 39.0355 56.7479C40.5292 57.6943 42.296 58.2445 44.1977 58.2445C45.3933 58.2445 46.5419 58.0307 47.5932 57.6283C47.8286 57.5434 48.0576 57.4428 48.2804 57.3359C49.1466 58.4521 49.9907 59.5934 50.8129 60.7535C52.6519 63.3191 54.381 65.9759 55.9972 68.705C57.6133 65.9759 59.3424 63.316 61.1814 60.7535C62.0036 59.5997 62.8477 58.4615 63.7139 57.3422C64.9503 57.9238 66.3374 58.2445 67.7966 58.2445C73.1252 58.2445 77.4496 53.9182 77.4496 48.5732C77.4496 46.8314 76.9914 45.1996 76.1849 43.7879C77.2581 42.8007 78.3502 41.8323 79.4674 40.8859C88.0534 54.5093 82.8409 73.6193 76.0217 86.5699L76.0186 86.573ZM38.0909 34.3587C47.7972 25.835 64.2379 25.9482 73.7968 34.453C72.0865 35.9088 70.4138 37.4054 68.7914 38.9585H68.7851C65.0507 42.5271 61.5485 46.3315 58.31 50.3497C57.5223 51.3243 56.7503 52.3116 56.0003 53.3146C52.8402 49.114 49.3945 45.1367 45.6946 41.3984C44.8787 40.5746 44.0502 39.7634 43.2123 38.9554H43.2061C41.546 37.3708 39.8451 35.8396 38.094 34.3556L38.0909 34.3587ZM79.6745 96.9486C90.9185 80.4734 98.4877 53.934 86.2615 35.5912C83.5501 31.5699 80.0668 28.0862 76.0217 25.4169V25.4106C60.2431 14.3213 35.9632 19.1632 25.5916 35.4906C21.6313 41.3449 19.3122 48.4098 19.3122 55.9965V86.0165C12.6122 77.8418 8.58598 67.3813 8.58598 55.9965C8.58598 46.2655 11.5327 37.2104 16.5726 29.674C18.1887 27.2593 20.0183 25.0018 22.0424 22.9236C22.6135 22.3293 23.2066 21.7477 23.8154 21.1975C25.9399 19.2198 28.2434 17.4497 30.7005 15.8965C37.9936 11.2746 46.6329 8.60213 55.8873 8.60213C58.3822 8.60213 60.8362 8.79707 63.2243 9.16807C69.1397 10.0987 74.6943 12.1267 79.6714 15.0444C83.4058 17.2296 86.8169 19.9178 89.8107 23.0053C91.8286 25.0836 93.6518 27.3473 95.2586 29.7683C100.27 37.2827 103.189 46.3126 103.189 55.9996C103.189 73.4526 93.7271 88.7267 79.6682 96.9549L79.6745 96.9486Z" fill="white"/>
</svg>
