<svg width="17" height="18" viewBox="0 0 17 18" fill="none" xmlns="http://www.w3.org/2000/svg">
<path d="M12.3433 0.86396C12.3932 0.707382 12.3794 0.537465 12.3049 0.390994C12.2304 0.244522 12.1012 0.13328 11.9453 0.0813482C11.7894 0.0294166 11.6193 0.040974 11.4719 0.113519C11.3244 0.186063 11.2115 0.313758 11.1575 0.46896L10.5325 2.34313C10.4826 2.49971 10.4964 2.66962 10.5709 2.81609C10.6454 2.96257 10.7746 3.07381 10.9305 3.12574C11.0864 3.17767 11.2565 3.16611 11.404 3.09357C11.5514 3.02102 11.6643 2.89333 11.7183 2.73813L12.3433 0.86396ZM16.15 0.849794C16.267 0.966981 16.3328 1.12583 16.3328 1.29146C16.3328 1.45709 16.267 1.61594 16.15 1.73313L14.0667 3.81646C14.0094 3.87787 13.9404 3.92712 13.8638 3.96128C13.7871 3.99544 13.7044 4.01381 13.6204 4.01529C13.5365 4.01677 13.4532 4.00133 13.3753 3.9699C13.2975 3.93846 13.2268 3.89167 13.1675 3.83233C13.1081 3.77298 13.0613 3.70228 13.0299 3.62446C12.9985 3.54663 12.983 3.46328 12.9845 3.37936C12.986 3.29544 13.0044 3.21268 13.0385 3.13601C13.0727 3.05935 13.1219 2.99035 13.1833 2.93313L15.2667 0.849794C15.3839 0.732752 15.5427 0.66701 15.7083 0.66701C15.874 0.66701 16.0328 0.732752 16.15 0.849794ZM8.725 2.11646C8.51005 1.88618 8.24219 1.71179 7.94463 1.60839C7.64707 1.505 7.32879 1.47571 7.01736 1.52307C6.70593 1.57044 6.41074 1.69302 6.15738 1.8802C5.90401 2.06739 5.70011 2.31353 5.56333 2.59729L0.648333 12.7998C0.510254 13.0867 0.46708 13.4102 0.525059 13.7233C0.583039 14.0364 0.739165 14.323 0.970833 14.5415L2.17 15.6731C2.38493 15.8758 2.6549 16.0104 2.94606 16.0602C3.23722 16.1101 3.5366 16.0728 3.80667 15.9531L4.9875 15.4298C5.35182 16.2283 6.01637 16.8509 6.83689 17.1624C7.65742 17.474 8.56771 17.4493 9.37017 17.0938C10.1726 16.7383 10.8025 16.0807 11.1231 15.2637C11.4437 14.4466 11.4291 13.5361 11.0825 12.7298L13.9325 11.4665C14.215 11.3413 14.4635 11.1504 14.6572 10.9097C14.8509 10.669 14.9842 10.3854 15.046 10.0827C15.1078 9.77995 15.0963 9.46683 15.0125 9.16944C14.9287 8.87205 14.775 8.59902 14.5642 8.37313L8.725 2.11729V2.11646ZM9.93917 13.2348C10.1415 13.736 10.1412 14.2963 9.93816 14.7972C9.73514 15.2982 9.34536 15.7006 8.85115 15.9196C8.35694 16.1385 7.79698 16.1568 7.28954 15.9705C6.7821 15.7843 6.36692 15.4081 6.13167 14.9215L9.93917 13.2348ZM13.8333 5.87396C13.8333 5.7082 13.8992 5.54923 14.0164 5.43202C14.1336 5.31481 14.2926 5.24896 14.4583 5.24896H16.125C16.2908 5.24896 16.4497 5.31481 16.5669 5.43202C16.6842 5.54923 16.75 5.7082 16.75 5.87396C16.75 6.03972 16.6842 6.19869 16.5669 6.3159C16.4497 6.43311 16.2908 6.49896 16.125 6.49896H14.4583C14.2926 6.49896 14.1336 6.43311 14.0164 6.3159C13.8992 6.19869 13.8333 6.03972 13.8333 5.87396Z" fill="white"/>
</svg>
