<svg width="20" height="20" viewBox="0 0 20 20" fill="none" xmlns="http://www.w3.org/2000/svg">
<path d="M16.6667 9.1665H11.6667C11.4457 9.1665 11.2337 9.2543 11.0774 9.41058C10.9211 9.56686 10.8333 9.77882 10.8333 9.99984V16.6665C10.8333 16.8875 10.9211 17.0995 11.0774 17.2558C11.2337 17.412 11.4457 17.4998 11.6667 17.4998H16.6667C16.8877 17.4998 17.0996 17.412 17.2559 17.2558C17.4122 17.0995 17.5 16.8875 17.5 16.6665V9.99984C17.5 9.77882 17.4122 9.56686 17.2559 9.41058C17.0996 9.2543 16.8877 9.1665 16.6667 9.1665Z" fill="white"/>
<path d="M16.6667 2.5H11.6667C11.4457 2.5 11.2337 2.5878 11.0774 2.74408C10.9211 2.90036 10.8333 3.11232 10.8333 3.33333V6.66667C10.8333 6.88768 10.9211 7.09964 11.0774 7.25592C11.2337 7.4122 11.4457 7.5 11.6667 7.5H16.6667C16.8877 7.5 17.0996 7.4122 17.2559 7.25592C17.4122 7.09964 17.5 6.88768 17.5 6.66667V3.33333C17.5 3.11232 17.4122 2.90036 17.2559 2.74408C17.0996 2.5878 16.8877 2.5 16.6667 2.5Z" fill="white"/>
<path d="M8.33333 2.5H3.33333C3.11232 2.5 2.90037 2.5878 2.74409 2.74408C2.58781 2.90036 2.5 3.11232 2.5 3.33333V10C2.5 10.221 2.58781 10.433 2.74409 10.5893C2.90037 10.7455 3.11232 10.8333 3.33333 10.8333H8.33333C8.55435 10.8333 8.7663 10.7455 8.92258 10.5893C9.07886 10.433 9.16667 10.221 9.16667 10V3.33333C9.16667 3.11232 9.07886 2.90036 8.92258 2.74408C8.7663 2.5878 8.55435 2.5 8.33333 2.5Z" fill="white"/>
<path d="M8.33333 12.5H3.33333C3.11232 12.5 2.90037 12.5878 2.74409 12.7441C2.58781 12.9004 2.5 13.1123 2.5 13.3333V16.6667C2.5 16.8877 2.58781 17.0996 2.74409 17.2559C2.90037 17.4122 3.11232 17.5 3.33333 17.5H8.33333C8.55435 17.5 8.7663 17.4122 8.92258 17.2559C9.07886 17.0996 9.16667 16.8877 9.16667 16.6667V13.3333C9.16667 13.1123 9.07886 12.9004 8.92258 12.7441C8.7663 12.5878 8.55435 12.5 8.33333 12.5Z" fill="white"/>
</svg>
