<svg width="18" height="12" viewBox="0 0 18 12" fill="none" xmlns="http://www.w3.org/2000/svg">
<path d="M12.75 5.99984C13.162 5.99984 13.5648 5.87765 13.9074 5.64873C14.25 5.41981 14.5171 5.09444 14.6747 4.71376C14.8324 4.33308 14.8737 3.91419 14.7933 3.51007C14.7129 3.10594 14.5145 2.73472 14.2231 2.44336C13.9318 2.152 13.5606 1.95358 13.1564 1.8732C12.7523 1.79281 12.3334 1.83407 11.9527 1.99175C11.5721 2.14944 11.2467 2.41646 11.0178 2.75907C10.7889 3.10167 10.6667 3.50446 10.6667 3.9165C10.6658 4.19034 10.7191 4.46164 10.8235 4.7148C10.9278 4.96796 11.0813 5.19798 11.2749 5.39161C11.4685 5.58524 11.6985 5.73866 11.9517 5.84305C12.2049 5.94743 12.4762 6.00072 12.75 5.99984ZM6.5 5.1665C6.99445 5.1665 7.4778 5.01988 7.88893 4.74518C8.30005 4.47047 8.62048 4.08002 8.8097 3.62321C8.99892 3.16639 9.04843 2.66373 8.95196 2.17877C8.8555 1.69382 8.6174 1.24836 8.26777 0.898734C7.91814 0.549102 7.47268 0.311005 6.98773 0.214542C6.50277 0.118079 6.00011 0.167586 5.54329 0.356805C5.08648 0.546024 4.69603 0.866455 4.42133 1.27758C4.14662 1.6887 4 2.17205 4 2.6665C3.99857 2.99521 4.06225 3.32095 4.18738 3.62491C4.31251 3.92887 4.4966 4.20503 4.72904 4.43746C4.96147 4.6699 5.23764 4.854 5.5416 4.97912C5.84556 5.10425 6.17129 5.16794 6.5 5.1665ZM12.75 7.6665C11.225 7.6665 8.16667 8.43317 8.16667 9.95817V10.9998C8.16667 11.2208 8.25446 11.4328 8.41074 11.5891C8.56702 11.7454 8.77899 11.8332 9 11.8332H16.5C16.721 11.8332 16.933 11.7454 17.0893 11.5891C17.2455 11.4328 17.3333 11.2208 17.3333 10.9998V9.95817C17.3333 8.43317 14.275 7.6665 12.75 7.6665ZM6.5 6.83317C4.55833 6.83317 0.666666 7.80817 0.666666 9.74984V10.9998C0.666666 11.2208 0.754463 11.4328 0.910744 11.5891C1.06702 11.7454 1.27899 11.8332 1.5 11.8332H6.5V9.95817C6.52288 9.33895 6.72047 8.73883 7.06995 8.22715C7.41943 7.71546 7.90653 7.31309 8.475 7.0665C7.8258 6.9248 7.16435 6.84666 6.5 6.83317Z" fill="white"/>
</svg>
