<svg width="40" height="40" viewBox="0 0 40 40" fill="none" xmlns="http://www.w3.org/2000/svg">
<path opacity="0.5" d="M20 0C23.9556 0 27.8224 1.17298 31.1114 3.37061C34.4004 5.56823 36.9638 8.69181 38.4776 12.3463C39.9913 16.0009 40.3874 20.0222 39.6157 23.9018C38.844 27.7814 36.9392 31.3451 34.1421 34.1421C31.3451 36.9392 27.7814 38.844 23.9018 39.6157C20.0222 40.3874 16.0009 39.9913 12.3463 38.4776C8.69181 36.9638 5.56823 34.4004 3.37061 31.1114C1.17298 27.8224 0 23.9556 0 20C0 14.6957 2.10714 9.60859 5.85786 5.85786C9.60859 2.10714 14.6957 0 20 0V0Z" fill="#F04747"/>
<path d="M20 8.79981C17.7848 8.79981 15.6194 9.45668 13.7776 10.6873C11.9358 11.918 10.5002 13.6672 9.65254 15.7137C8.80484 17.7603 8.58304 20.0122 9.0152 22.1848C9.44735 24.3574 10.514 26.353 12.0804 27.9194C13.6467 29.4857 15.6424 30.5524 17.815 30.9846C19.9876 31.4167 22.2395 31.1949 24.286 30.3472C26.3326 29.4995 28.0818 28.064 29.3124 26.2222C30.5431 24.3804 31.2 22.2149 31.2 19.9998C31.2013 18.5286 30.9125 17.0716 30.3501 15.7122C29.7877 14.3527 28.9628 13.1175 27.9225 12.0773C26.8823 11.037 25.647 10.212 24.2876 9.64966C22.9282 9.08727 21.4712 8.79848 20 8.79981ZM20 28.5678C18.2943 28.5678 16.627 28.062 15.2087 27.1144C13.7905 26.1668 12.6852 24.8199 12.0325 23.2441C11.3797 21.6682 11.2089 19.9342 11.5417 18.2613C11.8745 16.5885 12.6958 15.0518 13.9019 13.8457C15.108 12.6396 16.6446 11.8183 18.3175 11.4855C19.9904 11.1528 21.7244 11.3235 23.3002 11.9763C24.8761 12.629 26.223 13.7344 27.1706 15.1526C28.1182 16.5708 28.624 18.2381 28.624 19.9438C28.621 22.2301 27.7115 24.4219 26.0948 26.0386C24.4781 27.6553 22.2863 28.5648 20 28.5678Z" fill="#F04747"/>
<path d="M18.8641 14.0625V21.8039H26.348V19.7879H20.7737V14.0625H18.8641Z" fill="#F04747"/>
</svg>
