<svg width="20" height="20" viewBox="0 0 20 20" fill="none" xmlns="http://www.w3.org/2000/svg">
<path d="M17.4188 10.0057C17.4181 9.78558 17.3304 9.57463 17.1747 9.41895C17.019 9.26328 16.8081 9.17553 16.5879 9.17488L10.8309 9.16899L10.8309 3.40607C10.8147 3.19681 10.7201 3.00136 10.5661 2.85879C10.4121 2.71621 10.2099 2.63701 10 2.63701C9.79015 2.63701 9.58799 2.71621 9.43396 2.85879C9.27993 3.00136 9.18537 3.19681 9.16918 3.40607L9.16918 9.16899L3.40626 9.16899C3.197 9.18518 3.00156 9.27973 2.85898 9.43376C2.71641 9.58779 2.63721 9.78995 2.63721 9.99984C2.63721 10.2097 2.71641 10.4119 2.85898 10.5659C3.00156 10.7199 3.197 10.8145 3.40626 10.8307L9.16918 10.8307V16.5936C9.18537 16.8029 9.27993 16.9983 9.43396 17.1409C9.58799 17.2835 9.79015 17.3627 10 17.3627C10.2099 17.3627 10.4121 17.2835 10.5661 17.1409C10.7201 16.9983 10.8147 16.8029 10.8309 16.5936L10.8309 10.8307L16.5938 10.8307C16.8119 10.8285 17.0205 10.7409 17.1747 10.5867C17.329 10.4324 17.4166 10.2238 17.4188 10.0057Z" fill="white"/>
</svg>
