<svg width="24" height="24" viewBox="0 0 24 24" fill="none" xmlns="http://www.w3.org/2000/svg">
  <path
    d="M8.60004 11.4002L11.2 14.0002C11.2904 14.095 11.3989 14.1704 11.5193 14.2219C11.6396 14.2735 11.7691 14.3 11.9 14.3C12.0309 14.3 12.1605 14.2735 12.2808 14.2219C12.4011 14.1704 12.5097 14.095 12.6 14.0002L15.2 11.4002C15.3371 11.2604 15.4301 11.0835 15.4675 10.8914C15.505 10.6992 15.4852 10.5003 15.4107 10.3193C15.3361 10.1383 15.2101 9.9832 15.0483 9.87314C14.8864 9.76308 14.6958 9.70294 14.5 9.7002H9.30002C9.10429 9.70294 8.91368 9.76308 8.7518 9.87314C8.58993 9.9832 8.46394 10.1383 8.38941 10.3193C8.31488 10.5003 8.29511 10.6992 8.33255 10.8914C8.36999 11.0835 8.463 11.2604 8.60004 11.4002Z"
    fill="#737576" />
</svg>