<svg width="20" height="20" viewBox="0 0 20 20" fill="none" xmlns="http://www.w3.org/2000/svg">
<path d="M15.8333 9.16713H6.52494L10.5916 5.10047C10.7477 4.94313 10.8353 4.73045 10.8353 4.5088C10.8353 4.28714 10.7477 4.07447 10.5916 3.91713C10.4355 3.76192 10.2243 3.6748 10.0041 3.6748C9.78396 3.6748 9.57275 3.76192 9.41661 3.91713L3.92494 9.4088C3.76974 9.56493 3.68262 9.77614 3.68262 9.9963C3.68262 10.2165 3.76974 10.4277 3.92494 10.5838L9.41661 16.0755C9.57603 16.212 9.78109 16.2833 9.99082 16.2752C10.2006 16.2671 10.3995 16.1802 10.5479 16.0318C10.6963 15.8834 10.7833 15.6844 10.7914 15.4747C10.7995 15.2649 10.7281 15.0599 10.5916 14.9005L6.52494 10.8338H15.8333C16.0543 10.8338 16.2663 10.746 16.4225 10.5897C16.5788 10.4334 16.6666 10.2215 16.6666 10.0005C16.6666 9.77945 16.5788 9.56749 16.4225 9.41121C16.2663 9.25493 16.0543 9.16713 15.8333 9.16713Z" fill="#4829AA"/>
</svg>
