<svg width="20" height="20" viewBox="0 0 20 20" fill="none" xmlns="http://www.w3.org/2000/svg">
<path d="M4.16665 10.833H13.475L9.40831 14.8996C9.25219 15.057 9.16458 15.2696 9.16458 15.4913C9.16458 15.7129 9.25219 15.9256 9.40831 16.083C9.56445 16.2382 9.77566 16.3253 9.99581 16.3253C10.216 16.3253 10.4272 16.2382 10.5833 16.083L16.075 10.5913C16.2302 10.4352 16.3173 10.2239 16.3173 10.0038C16.3173 9.78363 16.2302 9.57242 16.075 9.41629L10.5916 3.91629C10.5169 3.82905 10.425 3.7582 10.3216 3.70818C10.2182 3.65816 10.1056 3.63005 9.99086 3.62562C9.87609 3.62119 9.76165 3.64053 9.65471 3.68242C9.54777 3.72432 9.45065 3.78787 9.36944 3.86908C9.28823 3.95029 9.22468 4.04741 9.18278 4.15435C9.14089 4.26129 9.12155 4.37573 9.12598 4.4905C9.13041 4.60526 9.15852 4.71787 9.20854 4.82126C9.25856 4.92465 9.32941 5.01658 9.41665 5.09129L13.475 9.16629H4.16665C3.94563 9.16629 3.73367 9.25408 3.57739 9.41036C3.42111 9.56664 3.33331 9.77861 3.33331 9.99962C3.33331 10.2206 3.42111 10.4326 3.57739 10.5889C3.73367 10.7452 3.94563 10.833 4.16665 10.833Z" fill="white"/>
</svg>
