<svg width="20" height="20" viewBox="0 0 20 20" fill="none" xmlns="http://www.w3.org/2000/svg">
<path d="M14.3433 1.86396C14.3932 1.70738 14.3794 1.53747 14.3049 1.39099C14.2304 1.24452 14.1012 1.13328 13.9453 1.08135C13.7894 1.02942 13.6193 1.04097 13.4719 1.11352C13.3245 1.18606 13.2115 1.31376 13.1575 1.46896L12.5325 3.34313C12.4827 3.49971 12.4965 3.66962 12.571 3.81609C12.6454 3.96257 12.7746 4.07381 12.9305 4.12574C13.0864 4.17767 13.2565 4.16611 13.404 4.09357C13.5514 4.02102 13.6644 3.89333 13.7183 3.73813L14.3433 1.86396ZM18.15 1.84979C18.2671 1.96698 18.3328 2.12583 18.3328 2.29146C18.3328 2.45709 18.2671 2.61594 18.15 2.73313L16.0667 4.81646C16.0095 4.87787 15.9405 4.92712 15.8638 4.96128C15.7871 4.99544 15.7044 5.01381 15.6205 5.01529C15.5365 5.01677 15.4532 5.00133 15.3754 4.9699C15.2975 4.93846 15.2268 4.89167 15.1675 4.83233C15.1081 4.77298 15.0613 4.70228 15.0299 4.62446C14.9985 4.54663 14.983 4.46328 14.9845 4.37936C14.986 4.29544 15.0044 4.21268 15.0385 4.13601C15.0727 4.05935 15.1219 3.99035 15.1833 3.93313L17.2667 1.84979C17.3839 1.73275 17.5427 1.66701 17.7083 1.66701C17.874 1.66701 18.0328 1.73275 18.15 1.84979ZM10.725 3.11646C10.5101 2.88618 10.2422 2.71179 9.94464 2.60839C9.64709 2.505 9.3288 2.47571 9.01737 2.52307C8.70594 2.57044 8.41076 2.69302 8.15739 2.8802C7.90403 3.06739 7.70012 3.31353 7.56335 3.59729L2.64835 13.7998C2.51027 14.0867 2.46709 14.4102 2.52507 14.7233C2.58305 15.0364 2.73918 15.323 2.97085 15.5415L4.17001 16.6731C4.38494 16.8758 4.65491 17.0104 4.94607 17.0602C5.23723 17.1101 5.53662 17.0728 5.80668 16.9531L6.98751 16.4298C7.35184 17.2283 8.01638 17.8509 8.83691 18.1624C9.65743 18.474 10.5677 18.4493 11.3702 18.0938C12.1727 17.7383 12.8025 17.0807 13.1231 16.2637C13.4437 15.4466 13.4291 14.5361 13.0825 13.7298L15.9325 12.4665C16.215 12.3413 16.4635 12.1504 16.6572 11.9097C16.8509 11.669 16.9842 11.3854 17.046 11.0827C17.1078 10.78 17.0963 10.4668 17.0125 10.1694C16.9287 9.87205 16.775 9.59902 16.5642 9.37313L10.725 3.11729V3.11646ZM11.9392 14.2348C12.1416 14.736 12.1412 15.2963 11.9382 15.7972C11.7352 16.2982 11.3454 16.7006 10.8512 16.9196C10.3569 17.1385 9.79699 17.1568 9.28955 16.9705C8.78212 16.7843 8.36693 16.4081 8.13168 15.9215L11.9392 14.2348ZM15.8333 6.87396C15.8333 6.7082 15.8992 6.54923 16.0164 6.43202C16.1336 6.31481 16.2926 6.24896 16.4583 6.24896H18.125C18.2908 6.24896 18.4497 6.31481 18.567 6.43202C18.6842 6.54923 18.75 6.7082 18.75 6.87396C18.75 7.03972 18.6842 7.19869 18.567 7.3159C18.4497 7.43311 18.2908 7.49896 18.125 7.49896H16.4583C16.2926 7.49896 16.1336 7.43311 16.0164 7.3159C15.8992 7.19869 15.8333 7.03972 15.8333 6.87396Z" fill="#4829AA"/>
</svg>
