<svg width="20" height="20" viewBox="0 0 20 20" fill="none" xmlns="http://www.w3.org/2000/svg">
<path d="M10 0C8.02219 0 6.08879 0.58649 4.4443 1.6853C2.79981 2.78412 1.51809 4.3459 0.761209 6.17317C0.00433284 8.00043 -0.193701 10.0111 0.192152 11.9509C0.578004 13.8907 1.53041 15.6725 2.92894 17.0711C4.32746 18.4696 6.10929 19.422 8.0491 19.8079C9.98891 20.1937 11.9996 19.9957 13.8268 19.2388C15.6541 18.4819 17.2159 17.2002 18.3147 15.5557C19.4135 13.9112 20 11.9778 20 10C19.9958 7.34913 18.9408 4.80805 17.0664 2.93361C15.192 1.05916 12.6509 0.00423124 10 0ZM14.77 7.64L9.77001 13.64C9.68267 13.748 9.57322 13.8359 9.44902 13.898C9.32483 13.9601 9.18877 13.9949 9.05 14H9C8.73435 14.0008 8.47915 13.8965 8.29 13.71L5.29 10.71C5.19677 10.6168 5.12281 10.5061 5.07234 10.3842C5.02188 10.2624 4.99591 10.1319 4.99591 10C4.99591 9.7337 5.1017 9.4783 5.29 9.29C5.47831 9.1017 5.7337 8.99591 6 8.99591C6.26631 8.99591 6.5217 9.1017 6.71 9.29L8.93001 11.52L13.23 6.36C13.3997 6.15578 13.6437 6.02736 13.9081 6.00298C14.1725 5.9786 14.4358 6.06026 14.64 6.23C14.8442 6.39974 14.9726 6.64365 14.997 6.90808C15.0214 7.1725 14.9397 7.43578 14.77 7.64Z" fill="#0FBD1E"/>
</svg>
