<svg width="20" height="20" viewBox="0 0 20 20" fill="none" xmlns="http://www.w3.org/2000/svg">
<path d="M7.50002 13.4752L4.60835 10.5835C4.44893 10.447 4.24387 10.3757 4.03414 10.3838C3.82441 10.3919 3.62546 10.4788 3.47705 10.6272C3.32864 10.7756 3.24169 10.9746 3.23359 11.1843C3.22549 11.394 3.29683 11.5991 3.43335 11.7585L6.91669 15.2419C7.07282 15.3971 7.28403 15.4842 7.50419 15.4842C7.72434 15.4842 7.93555 15.3971 8.09169 15.2419L16.9084 6.42519C17.0449 6.26577 17.1162 6.0607 17.1081 5.85097C17.1 5.64124 17.0131 5.44229 16.8647 5.29388C16.7162 5.14547 16.5173 5.05853 16.3076 5.05043C16.0978 5.04233 15.8928 5.11366 15.7334 5.25019L7.50002 13.4752Z" fill="#E0E4E6"/>
</svg>
