<svg width="20" height="20" viewBox="0 0 20 20" fill="none" xmlns="http://www.w3.org/2000/svg">
<path d="M7.4167 5.58337C7.33773 5.65863 7.27486 5.74914 7.23191 5.84941C7.18896 5.94968 7.16681 6.05762 7.16681 6.1667C7.16681 6.27579 7.18896 6.38373 7.23191 6.484C7.27486 6.58427 7.33773 6.67478 7.4167 6.75004L10.6667 10L7.4167 13.25C7.26456 13.4053 7.1798 13.6143 7.1809 13.8316C7.182 14.049 7.26885 14.2571 7.42255 14.4108C7.57624 14.5645 7.78436 14.6514 8.00172 14.6525C8.21908 14.6536 8.42809 14.5688 8.58333 14.4167L12.4167 10.5834C12.4957 10.5081 12.5585 10.4176 12.6014 10.3173C12.6444 10.2171 12.6665 10.1091 12.6665 10C12.6665 9.89096 12.6444 9.78301 12.6014 9.68274C12.5585 9.58247 12.4957 9.49196 12.4167 9.41671L8.58333 5.58337C8.50808 5.50441 8.41759 5.44155 8.31732 5.39859C8.21705 5.35564 8.10907 5.3335 7.99999 5.3335C7.89091 5.3335 7.78298 5.35564 7.68271 5.39859C7.58244 5.44155 7.49195 5.50441 7.4167 5.58337Z" fill="#737A7D"/>
</svg>
