<svg width="20" height="21" viewBox="0 0 20 21" fill="none" xmlns="http://www.w3.org/2000/svg">
<path d="M9.33336 8.19763L5.5 12.031C5.34786 12.1862 5.26315 12.3952 5.26425 12.6126C5.26534 12.8299 5.3522 13.0381 5.5059 13.1918C5.65959 13.3455 5.86771 13.4323 6.08507 13.4334C6.30243 13.4345 6.51144 13.3498 6.66668 13.1976L9.9167 9.94763L13.1667 13.1976C13.243 13.2755 13.334 13.3375 13.4344 13.38C13.5348 13.4225 13.6427 13.4446 13.7517 13.4452C13.8608 13.4457 13.9688 13.4247 14.0697 13.3832C14.1705 13.3417 14.2622 13.2807 14.3393 13.2036C14.4164 13.1264 14.4774 13.0348 14.5189 12.934C14.5604 12.8331 14.5815 12.7251 14.5809 12.616C14.5804 12.507 14.5582 12.3991 14.5157 12.2987C14.4732 12.1983 14.4112 12.1073 14.3334 12.031L10.5 8.19763C10.4247 8.11867 10.3343 8.0558 10.234 8.01285C10.1337 7.9699 10.0258 7.94775 9.9167 7.94775C9.80762 7.94775 9.69964 7.9699 9.59937 8.01285C9.4991 8.0558 9.40862 8.11867 9.33336 8.19763Z" fill="white"/>
</svg>
