<svg width="20" height="21" viewBox="0 0 20 21" fill="none" xmlns="http://www.w3.org/2000/svg">
<path d="M13.1667 8.19763L9.91668 11.4476L6.66666 8.19763C6.5914 8.11867 6.50092 8.0558 6.40065 8.01285C6.30038 7.9699 6.1924 7.94775 6.08332 7.94775C5.97424 7.94775 5.86631 7.9699 5.76604 8.01285C5.66577 8.0558 5.57523 8.11867 5.49997 8.19763C5.42101 8.27289 5.35819 8.36339 5.31524 8.46366C5.27229 8.56393 5.25014 8.67188 5.25014 8.78096C5.25014 8.89004 5.27229 8.99799 5.31524 9.09826C5.35819 9.19853 5.42101 9.28904 5.49997 9.3643L9.33334 13.1976C9.4086 13.2766 9.49908 13.3395 9.59935 13.3824C9.69962 13.4254 9.8076 13.4475 9.91668 13.4475C10.0258 13.4475 10.1337 13.4254 10.234 13.3824C10.3342 13.3395 10.4247 13.2766 10.5 13.1976L14.3333 9.3643C14.4112 9.28797 14.4732 9.19697 14.5157 9.09655C14.5582 8.99613 14.5803 8.88828 14.5809 8.77924C14.5814 8.6702 14.5604 8.56213 14.5189 8.46128C14.4774 8.36044 14.4163 8.26881 14.3392 8.19171C14.2621 8.1146 14.1705 8.05355 14.0697 8.01207C13.9688 7.9706 13.8608 7.94953 13.7517 7.95008C13.6427 7.95063 13.5348 7.97279 13.4344 8.01528C13.334 8.05777 13.243 8.11975 13.1667 8.19763Z" fill="white"/>
</svg>
