<svg width="25" height="24" viewBox="0 0 25 24" fill="none" xmlns="http://www.w3.org/2000/svg">
<path d="M17.4039 2.99021C17.2878 2.87368 17.1499 2.78122 16.998 2.71813C16.8462 2.65504 16.6833 2.62256 16.5189 2.62256C16.3544 2.62256 16.1916 2.65504 16.0397 2.71813C15.8878 2.78122 15.7499 2.87368 15.6339 2.99021L7.32387 11.3002C7.13762 11.4876 7.03308 11.741 7.03308 12.0052C7.03308 12.2694 7.13762 12.5228 7.32387 12.7102L15.6339 21.0202C15.749 21.1414 15.8872 21.2384 16.0403 21.3053C16.1935 21.3723 16.3585 21.4079 16.5256 21.4101C16.6927 21.4122 16.8586 21.3809 17.0134 21.3179C17.1683 21.255 17.3089 21.1617 17.4271 21.0435C17.5453 20.9253 17.6386 20.7846 17.7016 20.6298C17.7646 20.4749 17.7959 20.3091 17.7937 20.1419C17.7916 19.9748 17.7559 19.8098 17.689 19.6566C17.622 19.5035 17.5251 19.3653 17.4039 19.2502L10.1639 12.0002L17.4139 4.75021C17.6456 4.5153 17.7746 4.19809 17.7728 3.86814C17.7709 3.5382 17.6382 3.22247 17.4039 2.99021Z" fill="#737A7D"/>
</svg>
