<svg width="24" height="24" viewBox="0 0 24 24" fill="none" xmlns="http://www.w3.org/2000/svg">
<path d="M15.8 9.00005L11.9 12.9L8 9.00005C7.90969 8.90529 7.80111 8.82985 7.68079 8.77831C7.56046 8.72677 7.43089 8.7002 7.29999 8.7002C7.16909 8.7002 7.03957 8.72677 6.91925 8.77831C6.79893 8.82985 6.69028 8.90529 6.59998 9.00005C6.50522 9.09035 6.42984 9.19896 6.3783 9.31929C6.32675 9.43961 6.30017 9.56915 6.30017 9.70005C6.30017 9.83094 6.32675 9.96048 6.3783 10.0808C6.42984 10.2011 6.50522 10.3097 6.59998 10.4L11.2 15C11.2903 15.0948 11.3989 15.1702 11.5192 15.2218C11.6396 15.2733 11.7691 15.2999 11.9 15.2999C12.0309 15.2999 12.1604 15.2733 12.2808 15.2218C12.4011 15.1702 12.5097 15.0948 12.6 15L17.2 10.4C17.2935 10.3085 17.3678 10.1993 17.4188 10.0787C17.4698 9.95824 17.4964 9.82882 17.4971 9.69797C17.4977 9.56713 17.4724 9.43744 17.4227 9.31643C17.3729 9.19541 17.2996 9.08546 17.2071 8.99294C17.1146 8.90041 17.0046 8.82715 16.8836 8.77738C16.7626 8.72761 16.6329 8.70233 16.5021 8.70299C16.3712 8.70365 16.2418 8.73024 16.1213 8.78123C16.0008 8.83222 15.8916 8.90659 15.8 9.00005Z" fill="#737576"/>
</svg>
