<svg width="25" height="24" viewBox="0 0 25 24" fill="none" xmlns="http://www.w3.org/2000/svg">
<path d="M8.16384 21.0098C8.27989 21.1263 8.41781 21.2188 8.56968 21.2819C8.72155 21.345 8.88439 21.3774 9.04884 21.3774C9.2133 21.3774 9.37613 21.345 9.528 21.2819C9.67988 21.2188 9.81779 21.1263 9.93384 21.0098L18.2438 12.6998C18.4301 12.5124 18.5346 12.259 18.5346 11.9948C18.5346 11.7306 18.4301 11.4771 18.2438 11.2898L9.93384 2.97979C9.69711 2.75503 9.38197 2.63161 9.05556 2.63585C8.72916 2.64008 8.41732 2.77162 8.1865 3.00244C7.95568 3.23326 7.82414 3.54511 7.8199 3.87151C7.81567 4.19791 7.93908 4.51306 8.16384 4.74979L15.4038 11.9998L8.15384 19.2498C7.92214 19.4847 7.79307 19.8019 7.79494 20.1319C7.79682 20.4618 7.92948 20.7775 8.16384 21.0098Z" fill="#737A7D"/>
</svg>
