<svg width="20" height="20" viewBox="0 0 20 20" fill="none" xmlns="http://www.w3.org/2000/svg">
<path d="M15.2502 4.75844C15.094 4.60323 14.8828 4.51611 14.6627 4.51611C14.4425 4.51611 14.2313 4.60323 14.0752 4.75844L10.0002 8.82511L5.92519 4.75011C5.76577 4.61359 5.5607 4.54225 5.35097 4.55035C5.14124 4.55845 4.9423 4.64539 4.79388 4.7938C4.64547 4.94222 4.55853 5.14117 4.55043 5.3509C4.54233 5.56063 4.61366 5.76569 4.75019 5.92511L8.82519 10.0001L4.75019 14.0751C4.61366 14.2345 4.54233 14.4396 4.55043 14.6493C4.55853 14.859 4.64547 15.058 4.79388 15.2064C4.9423 15.3548 5.14124 15.4418 5.35097 15.4499C5.5607 15.458 5.76577 15.3866 5.92519 15.2501L10.0002 11.1751L14.0752 15.2501C14.2346 15.3866 14.4397 15.458 14.6494 15.4499C14.8591 15.4418 15.0581 15.3548 15.2065 15.2064C15.3549 15.058 15.4418 14.859 15.4499 14.6493C15.458 14.4396 15.3867 14.2345 15.2502 14.0751L11.1752 10.0001L15.2502 5.92511C15.4029 5.76933 15.4884 5.5599 15.4884 5.34177C15.4884 5.12365 15.4029 4.91421 15.2502 4.75844Z" fill="#2A3033"/>
</svg>
