<svg width="28" height="20" viewBox="0 0 28 20" fill="none" xmlns="http://www.w3.org/2000/svg">
<g clip-path="url(#clip0_206_488)">
<path d="M13.8498 2.49143C13.7531 2.39433 13.6382 2.31728 13.5117 2.2647C13.3851 2.21212 13.2494 2.18506 13.1123 2.18506C12.9753 2.18506 12.8396 2.21212 12.713 2.2647C12.5865 2.31728 12.4716 2.39433 12.3748 2.49143L5.44985 9.41644C5.29464 9.57257 5.20752 9.78378 5.20752 10.0039C5.20752 10.2241 5.29464 10.4353 5.44985 10.5914L12.3748 17.5164C12.4708 17.6174 12.5859 17.6982 12.7135 17.754C12.8412 17.8098 12.9787 17.8395 13.1179 17.8413C13.2572 17.8431 13.3955 17.817 13.5245 17.7645C13.6535 17.7121 13.7707 17.6343 13.8692 17.5358C13.9677 17.4373 14.0455 17.3201 14.098 17.1911C14.1504 17.062 14.1765 16.9238 14.1747 16.7845C14.1729 16.6453 14.1432 16.5078 14.0874 16.3801C14.0316 16.2525 13.9509 16.1373 13.8498 16.0414L7.81651 9.99977L13.8582 3.9581C14.0513 3.76235 14.1588 3.498 14.1573 3.22304C14.1557 2.94809 14.0451 2.68498 13.8498 2.49143Z" fill="#ECEAFA"/>
<path d="M21.8502 2.49143C21.7535 2.39433 21.6385 2.31728 21.512 2.2647C21.3854 2.21212 21.2497 2.18506 21.1127 2.18506C20.9756 2.18506 20.8399 2.21212 20.7134 2.2647C20.5868 2.31728 20.4719 2.39433 20.3752 2.49143L13.4502 9.41644C13.295 9.57257 13.2078 9.78378 13.2078 10.0039C13.2078 10.2241 13.295 10.4353 13.4502 10.5914L20.3752 17.5164C20.4711 17.6174 20.5862 17.6982 20.7139 17.754C20.8415 17.8098 20.979 17.8395 21.1183 17.8413C21.2575 17.8431 21.3958 17.817 21.5248 17.7645C21.6538 17.7121 21.7711 17.6343 21.8695 17.5358C21.968 17.4373 22.0458 17.3201 22.0983 17.1911C22.1507 17.062 22.1768 16.9238 22.175 16.7845C22.1732 16.6453 22.1436 16.5078 22.0878 16.3801C22.032 16.2525 21.9512 16.1373 21.8502 16.0414L15.8168 9.99977L21.8585 3.9581C22.0516 3.76235 22.1591 3.498 22.1576 3.22304C22.156 2.94809 22.0455 2.68498 21.8502 2.49143Z" fill="#ECEAFA"/>
</g>
<defs>
<clipPath id="clip0_206_488">
<rect width="28" height="20" fill="white"/>
</clipPath>
</defs>
</svg>
