<svg width="16" height="16" viewBox="0 0 16 16" fill="none" xmlns="http://www.w3.org/2000/svg">
<path d="M2.67873 14.6663C2.48503 14.6523 2.30482 14.562 2.17759 14.4153C2.05036 14.2686 1.98645 14.0774 2.00002 13.8836V11.4496C1.98645 11.2559 2.05036 11.0647 2.17759 10.9179C2.30482 10.7712 2.48503 10.681 2.67873 10.667C2.87256 10.6808 3.05299 10.771 3.18036 10.9177C3.30773 11.0645 3.37166 11.2558 3.3581 11.4496V13.1016H12.6428V11.4496C12.6292 11.2559 12.6929 11.0647 12.8202 10.9179C12.9474 10.7712 13.1276 10.681 13.3213 10.667C13.515 10.681 13.6952 10.7712 13.8224 10.9179C13.9497 11.0647 14.0136 11.2559 14 11.4496V13.8836C14.0136 14.0774 13.9497 14.2686 13.8224 14.4153C13.6952 14.562 13.515 14.6523 13.3213 14.6663H2.67873ZM7.29673 10.7116V3.42095L5.61672 5.07361C5.55669 5.13402 5.4852 5.18183 5.40643 5.21423C5.32767 5.24663 5.24323 5.26297 5.15806 5.26228C4.9875 5.25639 4.82474 5.18943 4.6994 5.07361C4.58866 4.95651 4.52688 4.80145 4.52688 4.64028C4.52688 4.47911 4.58866 4.32405 4.6994 4.20695L7.48798 1.50162C7.60879 1.39246 7.76591 1.33203 7.92873 1.33203C8.09156 1.33203 8.24851 1.39246 8.36933 1.50162L11.3028 4.29561C11.4138 4.41256 11.4756 4.56767 11.4756 4.72894C11.4756 4.89021 11.4138 5.04533 11.3028 5.16228C11.1749 5.27172 11.0119 5.33185 10.8436 5.33185C10.6753 5.33185 10.5125 5.27172 10.3846 5.16228L8.56203 3.42095V10.7103C8.56142 10.7925 8.54462 10.8739 8.51255 10.9496C8.48049 11.0254 8.43382 11.0941 8.37518 11.1518C8.31655 11.2095 8.24702 11.2551 8.17076 11.2859C8.0945 11.3168 8.01295 11.3323 7.93069 11.3316C7.76442 11.3334 7.60425 11.2691 7.48537 11.1528C7.36649 11.0366 7.29867 10.8779 7.29673 10.7116Z" fill="#4829AA"/>
</svg>
