<svg width="16" height="16" viewBox="0 0 16 16" fill="none" xmlns="http://www.w3.org/2000/svg">
<path d="M7.41548 2.1948C8.80162 2.0712 10.1852 2.45878 11.3094 3.28564C12.4337 4.1125 13.2223 5.32249 13.5289 6.6911L13.9052 6.24096C14.0039 6.12288 14.1451 6.04916 14.2977 6.03604C14.4503 6.02292 14.6018 6.07146 14.7189 6.17098C14.836 6.27051 14.9091 6.41287 14.9222 6.56674C14.9352 6.72061 14.887 6.8734 14.7883 6.99148L13.6718 8.32719C13.5731 8.44528 13.4319 8.51899 13.2793 8.53211C13.1267 8.54523 12.9752 8.49669 12.8581 8.39717L11.5334 7.27139C11.4162 7.17186 11.3431 7.02951 11.3301 6.87563C11.3171 6.72176 11.3652 6.56898 11.464 6.45089C11.5557 6.34258 11.6839 6.27238 11.824 6.25385C11.964 6.23532 12.1059 6.26977 12.2223 6.35056C11.8627 5.39601 11.2017 4.58725 10.3411 4.04899C9.48057 3.51072 8.4683 3.27286 7.46042 3.37208C6.45253 3.4713 5.50501 3.90208 4.76396 4.598C4.02292 5.29393 3.52951 6.21633 3.35984 7.22298C3.19016 8.22963 3.35363 9.2646 3.82504 10.1683C4.29646 11.072 5.04963 11.7942 5.96841 12.2236C6.8872 12.653 7.92056 12.7657 8.90915 12.5443C9.89774 12.3229 10.7866 11.7798 11.4388 10.9986C11.5375 10.8805 11.6787 10.8068 11.8313 10.7937C11.9839 10.7806 12.1354 10.8291 12.2525 10.9286C12.3696 11.0282 12.4428 11.1705 12.4558 11.3244C12.4688 11.4783 12.4206 11.631 12.3219 11.7491C11.7099 12.4813 10.9282 13.0501 10.0461 13.4049C9.16406 13.7597 8.20879 13.8898 7.26497 13.7834C6.32114 13.6771 5.41789 13.3377 4.63522 12.7954C3.85255 12.253 3.21462 11.5244 2.77794 10.674C2.34126 9.82366 2.1193 8.87785 2.13174 7.92035C2.14417 6.96286 2.39061 6.02323 2.84923 5.1847C3.30784 4.34618 3.96448 3.63464 4.76097 3.11311C5.55746 2.59158 6.46921 2.27617 7.41548 2.1948Z" fill="#4829AA"/>
</svg>
