<svg width="16" height="16" viewBox="0 0 16 16" fill="none" xmlns="http://www.w3.org/2000/svg">
<path d="M14.1786 11.8213L12.2206 9.86667C12.0956 9.74169 11.9261 9.67148 11.7493 9.67148C11.5725 9.67148 11.403 9.74169 11.278 9.86667L11.042 10.1027L9.80464 8.86533C9.77822 8.84409 9.74987 8.82534 9.71998 8.80933C10.4351 7.86273 10.7645 6.68004 10.6415 5.50005C10.5186 4.32006 9.95257 3.23065 9.05768 2.45177C8.16278 1.67289 7.0057 1.26255 5.82003 1.30359C4.63437 1.34463 3.50843 1.834 2.66953 2.67289C1.83064 3.51179 1.34127 4.63772 1.30023 5.82339C1.25919 7.00906 1.66953 8.16614 2.44841 9.06103C3.2273 9.95593 4.3167 10.522 5.49669 10.6449C6.67669 10.7678 7.85937 10.4385 8.80598 9.72334C8.82198 9.75323 8.84073 9.78158 8.86198 9.808L10.0986 11.0453L9.86331 11.2807C9.73833 11.4057 9.66812 11.5752 9.66812 11.752C9.66812 11.9288 9.73833 12.0983 9.86331 12.2233L11.8213 14.182C12.1339 14.4946 12.5579 14.6702 13 14.6702C13.4421 14.6702 13.866 14.4946 14.1786 14.182C14.4912 13.8694 14.6669 13.4454 14.6669 13.0033C14.6669 12.5612 14.4912 12.1373 14.1786 11.8247V11.8213ZM5.99998 9.33333C5.34071 9.33333 4.69624 9.13784 4.14808 8.77157C3.59991 8.4053 3.17267 7.8847 2.92038 7.27561C2.66809 6.66653 2.60208 5.9963 2.73069 5.3497C2.85931 4.7031 3.17678 4.10915 3.64296 3.64298C4.10913 3.1768 4.70307 2.85933 5.34968 2.73072C5.99628 2.6021 6.6665 2.66811 7.27559 2.9204C7.88468 3.1727 8.40527 3.59994 8.77154 4.1481C9.13781 4.69626 9.33331 5.34073 9.33331 6C9.33225 6.88373 8.98072 7.73096 8.35583 8.35585C7.73094 8.98075 6.88371 9.33228 5.99998 9.33333Z" fill="#4829AA"/>
</svg>
