<svg width="22" height="19" viewBox="0 0 22 19" fill="none" xmlns="http://www.w3.org/2000/svg">
  <path d="M11 4C12.3261 4 13.5979 4.52678 14.5355 5.46447C15.4732 6.40215 16 7.67392 16 9C15.9994 9.62754 15.8772 10.249 15.64 10.83L18.56 13.75C20.0839 12.4797 21.2635 10.8462 21.99 9C21.1213 6.7901 19.6074 4.89286 17.6455 3.55521C15.6836 2.21755 13.3645 1.50141 10.99 1.5C9.63268 1.4996 8.28573 1.7365 7.01 2.2L9.17 4.36C9.75099 4.12281 10.3725 4.00055 11 4ZM1 1.27L3.28 3.55L3.74 4.01C2.06842 5.30786 0.776644 7.03138 0 9C0.569384 10.4496 1.41958 11.7724 2.50174 12.8924C3.58389 14.0124 4.87669 14.9076 6.30585 15.5264C7.73501 16.1453 9.27237 16.4757 10.8296 16.4986C12.3868 16.5215 13.9332 16.2365 15.38 15.66L15.8 16.08L18.73 19L20 17.73L2.27 0L1 1.27ZM6.53 6.8L8.08 8.35C8.02819 8.56283 8.00134 8.78096 8 9C8 9.79565 8.31607 10.5587 8.87868 11.1213C9.44129 11.6839 10.2044 12 11 12C11.219 11.9987 11.4372 11.9718 11.65 11.92L13.2 13.47C12.2668 13.9398 11.2092 14.1034 10.1776 13.9374C9.14606 13.7715 8.1931 13.2845 7.45431 12.5457C6.71551 11.8069 6.2285 10.8539 6.06256 9.82239C5.89661 8.79084 6.06018 7.73322 6.53 6.8ZM10.84 6.02L13.99 9.17L14.01 9.01C14.01 8.21435 13.6939 7.45129 13.1313 6.88868C12.5687 6.32607 11.8056 6.01 11.01 6.01L10.84 6.02Z" fill="#737A7D" />
</svg>