<svg width="24" height="25" viewBox="0 0 24 25" fill="none" xmlns="http://www.w3.org/2000/svg">
<path d="M12 5C9.62547 5.00141 7.30636 5.71755 5.34446 7.05521C3.38256 8.39286 1.86874 10.2901 1 12.5C1.86767 14.7106 3.38125 16.6085 5.3434 17.9462C7.30555 19.2839 9.62523 19.9994 12 19.9994C14.3748 19.9994 16.6945 19.2839 18.6566 17.9462C20.6187 16.6085 22.1323 14.7106 23 12.5C22.1313 10.2901 20.6174 8.39286 18.6555 7.05521C16.6936 5.71755 14.3745 5.00141 12 5ZM12 17.5C11.0111 17.5 10.0444 17.2068 9.22215 16.6573C8.3999 16.1079 7.75904 15.327 7.3806 14.4134C7.00216 13.4998 6.90315 12.4945 7.09607 11.5245C7.289 10.5546 7.7652 9.66373 8.46447 8.96447C9.16373 8.2652 10.0546 7.789 11.0245 7.59607C11.9945 7.40315 12.9998 7.50216 13.9134 7.8806C14.827 8.25904 15.6079 8.8999 16.1573 9.72215C16.7068 10.5444 17 11.5111 17 12.5C17 13.8261 16.4732 15.0979 15.5355 16.0355C14.5979 16.9732 13.3261 17.5 12 17.5ZM12 9.5C11.4067 9.5 10.8266 9.67595 10.3333 10.0056C9.83994 10.3352 9.45542 10.8038 9.22836 11.3519C9.0013 11.9001 8.94189 12.5033 9.05764 13.0853C9.1734 13.6672 9.45912 14.2018 9.87868 14.6213C10.2982 15.0409 10.8328 15.3266 11.4147 15.4424C11.9967 15.5581 12.5999 15.4987 13.1481 15.2716C13.6962 15.0446 14.1648 14.6601 14.4944 14.1667C14.8241 13.6734 15 13.0933 15 12.5C15 11.7044 14.6839 10.9413 14.1213 10.3787C13.5587 9.81607 12.7956 9.5 12 9.5Z" fill="#737A7D"/>
</svg>
