<svg width="28" height="28" viewBox="0 0 28 28" fill="none" xmlns="http://www.w3.org/2000/svg">
<path d="M26.9427 13.0573L14.9427 1.05734C14.6927 0.807382 14.3536 0.666962 14 0.666962C13.6465 0.666962 13.3074 0.807382 13.0574 1.05734L1.05737 13.0573C0.807412 13.3074 0.666992 13.6465 0.666992 14C0.666992 14.3536 0.807412 14.6926 1.05737 14.9427L13.0574 26.9427C13.3074 27.1926 13.6465 27.3331 14 27.3331C14.3536 27.3331 14.6927 27.1926 14.9427 26.9427L26.9427 14.9427C27.1927 14.6926 27.3331 14.3536 27.3331 14C27.3331 13.6465 27.1927 13.3074 26.9427 13.0573ZM14 20.6667C13.7363 20.6667 13.4785 20.5885 13.2593 20.442C13.04 20.2955 12.8691 20.0872 12.7682 19.8436C12.6673 19.6 12.6409 19.3319 12.6923 19.0732C12.7438 18.8146 12.8708 18.577 13.0572 18.3905C13.2437 18.2041 13.4813 18.0771 13.7399 18.0256C13.9986 17.9742 14.2667 18.0006 14.5103 18.1015C14.7539 18.2024 14.9622 18.3733 15.1087 18.5926C15.2552 18.8118 15.3334 19.0696 15.3334 19.3333C15.3334 19.687 15.1929 20.0261 14.9429 20.2762C14.6928 20.5262 14.3537 20.6667 14 20.6667ZM15.3334 15.3333C15.3334 15.687 15.1929 16.0261 14.9429 16.2762C14.6928 16.5262 14.3537 16.6667 14 16.6667C13.6464 16.6667 13.3073 16.5262 13.0572 16.2762C12.8072 16.0261 12.6667 15.687 12.6667 15.3333V8.66668C12.6667 8.31305 12.8072 7.97392 13.0572 7.72387C13.3073 7.47382 13.6464 7.33334 14 7.33334C14.3537 7.33334 14.6928 7.47382 14.9429 7.72387C15.1929 7.97392 15.3334 8.31305 15.3334 8.66668V15.3333Z" fill="#F04747"/>
</svg>
